<svg xmlns="http://www.w3.org/2000/svg" version="1.1" xmlns:xlink="http://www.w3.org/1999/xlink" xmlns:svgjs="http://svgjs.dev/svgjs" viewBox="0 0 7.387062167828262 2.0216184612962578"><g transform="matrix(1,0,0,1,1.8395394877117606,0.33471931633600616)"><rect width="7.387062167828262" height="2.0216184612962578" x="-1.8395394877117606" y="-0.3347193163360062" fill="#ffffff"></rect><g><path d=" M 1.0845 1.1205 Q 1.116 1.1205 1.143 1.14675 Q 1.17 1.173 1.17 1.2075 Q 1.17 1.242 1.13925 1.27275 Q 1.1085 1.3035 1.0605 1.3275000000000001 Q 1.0125 1.3515000000000001 0.96075 1.365 Q 0.909 1.3785 0.867 1.3785 Q 0.774 1.3785 0.7185 1.36125 Q 0.663 1.344 0.627 1.32225 Q 0.591 1.3005 0.5595 1.28325 Q 0.528 1.266 0.483 1.266 Q 0.4545 1.266 0.43725 1.27575 Q 0.42 1.2855 0.39975 1.29525 Q 0.3795 1.305 0.3435 1.305 Q 0.306 1.305 0.2805 1.2765 Q 0.255 1.248 0.255 1.215 Q 0.255 1.1565 0.3075 1.137 L 0.618 1.0215 L 0.753 1.0545 L 0.462 1.1625 L 0.5475 1.113 Q 0.6 1.113 0.63975 1.12875 Q 0.6795 1.1445 0.7155 1.164 Q 0.7515000000000001 1.1835 0.7897500000000001 1.19925 Q 0.8280000000000001 1.215 0.8775000000000001 1.215 Q 0.918 1.215 0.94575 1.2015 Q 0.9735 1.188 0.9945 1.1715 Q 1.02 1.152 1.0402500000000001 1.13625 Q 1.0605 1.1205 1.0845 1.1205 Z M 1.0785 0.5535 Q 1.0785 0.6659999999999999 1.041 0.7635000000000001 Q 1.0035 0.861 0.93525 0.93525 Q 0.867 1.0095 0.77325 1.0515 Q 0.6795 1.0935 0.5685 1.0935 Q 0.4575 1.0935 0.3645 1.0515 Q 0.2715 1.0095 0.20325000000000001 0.93525 Q 0.135 0.861 0.0975 0.7635000000000001 Q 0.06 0.6659999999999999 0.06 0.5535 Q 0.06 0.44099999999999995 0.0975 0.3435 Q 0.135 0.246 0.20325000000000001 0.17174999999999996 Q 0.2715 0.09750000000000003 0.3645 0.05549999999999988 Q 0.4575 0.013500000000000068 0.5685 0.013500000000000068 Q 0.6795 0.013500000000000068 0.77325 0.05549999999999988 Q 0.867 0.09750000000000003 0.93525 0.17174999999999996 Q 1.0035 0.246 1.041 0.3435 Q 1.0785 0.44099999999999995 1.0785 0.5535 Z M 0.8835000000000001 0.5535 Q 0.8835000000000001 0.45299999999999996 0.843 0.37124999999999997 Q 0.8025 0.2895 0.732 0.24150000000000005 Q 0.6615 0.1935 0.5685 0.1935 Q 0.47550000000000003 0.1935 0.405 0.24150000000000005 Q 0.3345 0.2895 0.29475 0.37050000000000005 Q 0.255 0.4515 0.255 0.5535 Q 0.255 0.654 0.29475 0.73575 Q 0.3345 0.8175 0.405 0.8655 Q 0.47550000000000003 0.9135 0.5685 0.9135 Q 0.6615 0.9135 0.732 0.8655 Q 0.8025 0.8175 0.843 0.73575 Q 0.8835000000000001 0.654 0.8835000000000001 0.5535 Z M 1.754915771484375 1.0935 Q 1.640915771484375 1.0935 1.541915771484375 1.0515 Q 1.4429157714843748 1.0095 1.3679157714843748 0.93525 Q 1.2929157714843749 0.861 1.250165771484375 0.7635000000000001 Q 1.207415771484375 0.6659999999999999 1.207415771484375 0.5535 Q 1.207415771484375 0.44099999999999995 1.250165771484375 0.3435 Q 1.2929157714843749 0.246 1.3679157714843748 0.17174999999999996 Q 1.4429157714843748 0.09750000000000003 1.541915771484375 0.05549999999999988 Q 1.640915771484375 0.013500000000000068 1.754915771484375 0.013500000000000068 Q 1.825415771484375 0.013500000000000068 1.891415771484375 0.02849999999999997 Q 1.957415771484375 0.043500000000000094 2.012915771484375 0.0734999999999999 Q 2.035415771484375 0.08550000000000002 2.046665771484375 0.10575000000000001 Q 2.057915771484375 0.126 2.057915771484375 0.14700000000000002 Q 2.057915771484375 0.18299999999999994 2.033915771484375 0.21150000000000002 Q 2.009915771484375 0.24 1.9724157714843749 0.24 Q 1.9604157714843748 0.24 1.9476657714843748 0.237 Q 1.9349157714843748 0.23399999999999999 1.9229157714843748 0.22799999999999998 Q 1.885415771484375 0.21150000000000002 1.8434157714843749 0.2025 Q 1.801415771484375 0.1935 1.754915771484375 0.1935 Q 1.657415771484375 0.1935 1.577165771484375 0.24224999999999997 Q 1.496915771484375 0.29100000000000004 1.449665771484375 0.37275 Q 1.402415771484375 0.4545 1.402415771484375 0.5535 Q 1.402415771484375 0.651 1.449665771484375 0.7335 Q 1.496915771484375 0.8160000000000001 1.577165771484375 0.86475 Q 1.657415771484375 0.9135 1.754915771484375 0.9135 Q 1.799915771484375 0.9135 1.8539157714843748 0.9045 Q 1.907915771484375 0.8955 1.942415771484375 0.8805000000000001 L 1.928915771484375 0.9255 L 1.928915771484375 0.669 L 1.954415771484375 0.6915 L 1.787915771484375 0.6915 Q 1.7489157714843748 0.6915 1.722665771484375 0.6659999999999999 Q 1.696415771484375 0.6405000000000001 1.696415771484375 0.6014999999999999 Q 1.696415771484375 0.5625 1.722665771484375 0.537 Q 1.7489157714843748 0.5115 1.787915771484375 0.5115 L 2.033915771484375 0.5115 Q 2.072915771484375 0.5115 2.098415771484375 0.53775 Q 2.123915771484375 0.5640000000000001 2.123915771484375 0.603 L 2.123915771484375 0.921 Q 2.123915771484375 0.9510000000000001 2.1096657714843747 0.9705 Q 2.095415771484375 0.99 2.077415771484375 1.002 Q 2.008415771484375 1.044 1.926665771484375 1.06875 Q 1.844915771484375 1.0935 1.754915771484375 1.0935 Z M 2.6743916015625 1.0935 Q 2.5468916015625003 1.0935 2.4531416015625003 1.0402500000000001 Q 2.3593916015625003 0.987 2.3091416015625 0.8955 Q 2.2588916015625005 0.804 2.2588916015625005 0.6885 Q 2.2588916015625005 0.5535 2.3136416015625003 0.45825000000000005 Q 2.3683916015625 0.363 2.4568916015625004 0.31199999999999994 Q 2.5453916015625 0.261 2.6443916015625004 0.261 Q 2.7208916015625 0.261 2.7891416015625 0.2925 Q 2.8573916015625 0.32399999999999995 2.9098916015625003 0.37875000000000003 Q 2.9623916015625005 0.4335 2.9931416015625003 0.5055 Q 3.0238916015625 0.5775 3.0238916015625 0.6585000000000001 Q 3.0223916015625 0.6945 2.9953916015625004 0.7170000000000001 Q 2.9683916015625003 0.7395 2.9323916015625002 0.7395 L 2.3593916015625003 0.7395 L 2.3143916015625003 0.5895 L 2.8648916015625003 0.5895 L 2.8318916015625004 0.6194999999999999 L 2.8318916015625004 0.579 Q 2.8288916015625003 0.5355 2.8011416015625 0.501 Q 2.7733916015625004 0.4665 2.7321416015625 0.44625000000000004 Q 2.6908916015625004 0.42600000000000005 2.6443916015625004 0.42600000000000005 Q 2.5993916015625 0.42600000000000005 2.5603916015625003 0.43800000000000006 Q 2.5213916015625 0.44999999999999996 2.4928916015625004 0.47850000000000004 Q 2.4643916015625003 0.507 2.4478916015625 0.555 Q 2.4313916015625003 0.603 2.4313916015625003 0.6765 Q 2.4313916015625003 0.7575000000000001 2.4651416015625003 0.81375 Q 2.4988916015625002 0.87 2.5521416015625 0.89925 Q 2.6053916015625003 0.9285 2.6653916015625003 0.9285 Q 2.7208916015625 0.9285 2.7538916015625 0.9195 Q 2.7868916015625 0.9105 2.8071416015625004 0.89775 Q 2.8273916015625002 0.885 2.8438916015625004 0.876 Q 2.8708916015625 0.8625 2.8948916015625 0.8625 Q 2.9278916015625 0.8625 2.9496416015625 0.885 Q 2.9713916015625004 0.9075 2.9713916015625004 0.9375 Q 2.9713916015625004 0.978 2.9293916015625 1.0110000000000001 Q 2.8903916015625004 1.044 2.8198916015625004 1.06875 Q 2.7493916015625004 1.0935 2.6743916015625 1.0935 Z M 3.6178256835937503 0.261 Q 3.7288256835937506 0.261 3.7865756835937505 0.3075 Q 3.8443256835937505 0.354 3.8660756835937504 0.43125 Q 3.8878256835937504 0.5085 3.8878256835937504 0.603 L 3.8878256835937504 0.987 Q 3.8878256835937504 1.026 3.8623256835937503 1.05225 Q 3.8368256835937506 1.0785 3.7978256835937505 1.0785 Q 3.7588256835937504 1.0785 3.7333256835937503 1.05225 Q 3.70782568359375 1.026 3.70782568359375 0.987 L 3.70782568359375 0.603 Q 3.70782568359375 0.5535 3.6950756835937506 0.51375 Q 3.68232568359375 0.474 3.6493256835937506 0.44999999999999996 Q 3.6163256835937503 0.42600000000000005 3.5548256835937506 0.42600000000000005 Q 3.4948256835937506 0.42600000000000005 3.4535756835937503 0.44999999999999996 Q 3.4123256835937505 0.474 3.3905756835937506 0.51375 Q 3.3688256835937502 0.5535 3.3688256835937502 0.603 L 3.3688256835937502 0.987 Q 3.3688256835937502 1.026 3.3433256835937506 1.05225 Q 3.3178256835937505 1.0785 3.2788256835937504 1.0785 Q 3.2398256835937502 1.0785 3.21432568359375 1.05225 Q 3.1888256835937505 1.026 3.1888256835937505 0.987 L 3.1888256835937505 0.36750000000000005 Q 3.1888256835937505 0.3285 3.21432568359375 0.30225 Q 3.2398256835937502 0.276 3.2788256835937504 0.276 Q 3.3178256835937505 0.276 3.3433256835937506 0.30225 Q 3.3688256835937502 0.3285 3.3688256835937502 0.36750000000000005 L 3.3688256835937502 0.43200000000000005 L 3.3463256835937503 0.4275 Q 3.3598256835937503 0.402 3.3853256835937504 0.37275 Q 3.4108256835937505 0.3435 3.4453256835937505 0.31799999999999995 Q 3.4798256835937504 0.2925 3.5233256835937503 0.27675000000000005 Q 3.56682568359375 0.261 3.6178256835937503 0.261 Z M 4.267246582031251 0.987 Q 4.267246582031251 1.026 4.241746582031251 1.05225 Q 4.216246582031251 1.0785 4.17724658203125 1.0785 Q 4.13824658203125 1.0785 4.11274658203125 1.05225 Q 4.08724658203125 1.026 4.08724658203125 0.987 L 4.08724658203125 0.36750000000000005 Q 4.08724658203125 0.3285 4.11274658203125 0.30225 Q 4.13824658203125 0.276 4.17724658203125 0.276 Q 4.216246582031251 0.276 4.241746582031251 0.30225 Q 4.267246582031251 0.3285 4.267246582031251 0.36750000000000005 L 4.267246582031251 0.987 Z M 4.175746582031251 0.1785 Q 4.124746582031251 0.1785 4.103746582031251 0.16200000000000003 Q 4.08274658203125 0.14549999999999996 4.08274658203125 0.10350000000000004 L 4.08274658203125 0.07499999999999996 Q 4.08274658203125 0.031500000000000083 4.10599658203125 0.01574999999999993 Q 4.12924658203125 0 4.17724658203125 0 Q 4.22974658203125 0 4.25074658203125 0.01649999999999996 Q 4.27174658203125 0.03299999999999992 4.27174658203125 0.07499999999999996 L 4.27174658203125 0.10350000000000004 Q 4.27174658203125 0.14700000000000002 4.24924658203125 0.16274999999999995 Q 4.22674658203125 0.1785 4.175746582031251 0.1785 Z M 4.837189453125 1.0935 Q 4.709689453125 1.0935 4.615939453125 1.0402500000000001 Q 4.522189453125 0.987 4.4719394531250005 0.8955 Q 4.421689453125 0.804 4.421689453125 0.6885 Q 4.421689453125 0.5535 4.476439453125 0.45825000000000005 Q 4.531189453125 0.363 4.619689453125 0.31199999999999994 Q 4.708189453125001 0.261 4.807189453125 0.261 Q 4.883689453125 0.261 4.951939453125 0.2925 Q 5.020189453125 0.32399999999999995 5.072689453125 0.37875000000000003 Q 5.125189453125 0.4335 5.155939453125001 0.5055 Q 5.186689453125 0.5775 5.186689453125 0.6585000000000001 Q 5.185189453125 0.6945 5.158189453125 0.7170000000000001 Q 5.131189453125 0.7395 5.095189453125 0.7395 L 4.522189453125 0.7395 L 4.477189453125 0.5895 L 5.027689453125 0.5895 L 4.994689453125 0.6194999999999999 L 4.994689453125 0.579 Q 4.991689453125 0.5355 4.9639394531250005 0.501 Q 4.936189453125 0.4665 4.894939453125001 0.44625000000000004 Q 4.853689453125 0.42600000000000005 4.807189453125 0.42600000000000005 Q 4.762189453125 0.42600000000000005 4.723189453125 0.43800000000000006 Q 4.684189453125001 0.44999999999999996 4.655689453125 0.47850000000000004 Q 4.627189453125 0.507 4.6106894531250004 0.555 Q 4.594189453125 0.603 4.594189453125 0.6765 Q 4.594189453125 0.7575000000000001 4.627939453125 0.81375 Q 4.661689453125 0.87 4.714939453125 0.89925 Q 4.768189453125 0.9285 4.828189453125 0.9285 Q 4.883689453125 0.9285 4.9166894531250005 0.9195 Q 4.949689453125 0.9105 4.969939453125 0.89775 Q 4.990189453125 0.885 5.006689453125 0.876 Q 5.0336894531250005 0.8625 5.0576894531250005 0.8625 Q 5.090689453125 0.8625 5.112439453125 0.885 Q 5.134189453125 0.9075 5.134189453125 0.9375 Q 5.134189453125 0.978 5.092189453125 1.0110000000000001 Q 5.053189453125 1.044 4.982689453125 1.06875 Q 4.912189453125 1.0935 4.837189453125 1.0935 Z" fill="#404040" fill-rule="nonzero"></path></g><g></g><g clip-path="url(&quot;#SvgjsClipPath1003&quot;)"><g clip-path="url(&quot;#SvgjsClipPath1000&quot;)"><path d=" M -0.7322268042449321 0.040958027494858454 L -1.1868791898736109 0.45647667287952287 C -1.174969613523645 0.4704095420449502 -1.1589115099619494 0.4801627270503176 -1.1410570207300448 0.4843076114014565 C -1.1143997728563502 0.4887290487749585 -1.1103802843349846 0.4867193045142757 -1.1103802843349846 0.4867193045142757 C -1.1103802843349846 0.4867193045142757 -1.1076872270256688 0.5473814252787216 -1.1003315630315702 0.5600749700291934 C -1.086024235066043 0.5790083877301083 -1.0687122182190436 0.5954704184950509 -1.0490830843841625 0.608807248862227 C -1.0375310743737578 0.6148364816442752 -1.0112114635358578 0.6048681501112889 -1.0112114635358578 0.6048681501112889 C -1.0148754945905485 0.6153909696385057 -1.0172062045470824 0.6263315328296083 -1.0181491007237358 0.6374340461113912 C -1.018084788907393 0.6494925116754868 -1.0016048859697952 0.6972359963322644 -0.9887907565636822 0.7092944618963607 C -0.975976627157569 0.7213529274604568 -0.917147393158866 0.7502932448142873 -0.9064957485772487 0.7483719293010743 C -0.8958441039956314 0.7464506137878619 -0.4493352021112387 0.34866595175946147 -0.4493352021112387 0.34866595175946147 C -0.4493352021112387 0.34866595175946147 -0.5116292352153593 0.20734877432529844 -0.5737785667327099 0.1530696013327806 C -0.6359278982500607 0.09879042834026316 -0.7322268042449321 0.040958027494858454 -0.7322268042449321 0.040958027494858454 Z" fill="#4e888f" transform="matrix(1,0,0,1,0,0)" fill-rule="evenodd"></path></g><g clip-path="url(&quot;#SvgjsClipPath1000&quot;)"><path d=" M -0.43261412986235914 0.49598824504454453 C -0.43293583939228264 0.491909173681376 -0.43162299442850327 0.4878695008619536 -0.4289647239083618 0.48475888708824144 C -0.4263064533882186 0.48164827331453 -0.4225207755378162 0.47972183577339944 -0.418441413336025 0.47940383540539133 C -0.40995127719241875 0.4787431246286915 -0.40253164268568464 0.48508687614924006 -0.4018650426739139 0.49357655193172556 C -0.4012969549628951 0.5005704619589009 -0.4008467722485014 0.5081780139003383 -0.40051449453073507 0.5163992077560376 C -0.4001768574949407 0.5248240556968194 -0.4000053593180293 0.532442326274314 -0.400000000000001 0.5392540194885213 C -0.3998042860454223 0.6892895064332782 -0.4594241285330094 0.8332138372135218 -0.565659199919507 0.9391609714561577 C -0.671609308996791 1.0453965119309787 -0.8155362715634085 1.1050162461382733 -0.9655741908642769 1.1048201713757546 C -1.1156114046434464 1.1050126873784265 -1.2595370550720477 1.0453934967059806 -1.3654891818089985 0.9391609714562026 C -1.4717160280703714 0.8332089853469387 -1.531331958531686 0.6892871142060779 -1.5311403427515087 0.5392540194885213 C -1.5313296510564638 0.38921902136465125 -1.4717142363121587 0.24529550213309964 -1.3654891818090193 0.13933902854381525 C -1.2595370550720477 0.033106503294018784 -1.1156114046434464 -0.02651268737842724 -0.9655741908642752 -0.026320171375754667 C -0.9354841515855444 -0.02630366575726407 -0.9054434789999314 -0.023884282730234466 -0.8757386224117591 -0.019085092037297236 C -0.8466278160111643 -0.014418553463066511 -0.8179268103667228 -0.007481177965004405 -0.7898984255494829 0.0016635077099908455 C -0.7892833599297584 0.0017828436570420034 -0.7886765266340213 0.0019412647386726663 -0.7880816167378263 0.0021378073555119205 C -0.7074135834442503 0.028850842844079454 -0.6338040976545695 0.07340286802582932 -0.5727254607401118 0.1324817811263481 C -0.5115293763019182 0.19152904936875956 -0.4644205968939865 0.26360314634452314 -0.43489719934249527 0.3433521879342165 C -0.43256821634358533 0.3497008353388555 -0.43464779495998007 0.3568261626984768 -0.4400260666957576 0.3609253917496253 L -0.9242699268187261 0.7843141956591239 C -0.9268521828987991 0.7865776453486578 -0.9301183194161439 0.7879107045338132 -0.9335469063260373 0.78810055384625 L -0.9335469063260373 0.78810055384625 L -1.2549210915632825 0.8062686419628211 C -1.263412564033208 0.8067250609294074 -1.270668882356532 0.8002170391907392 -1.2711357082584702 0.7917261324925213 C -1.2711939362031581 0.7907194888700728 -1.2711508451175297 0.7897095415506582 -1.2710070846257877 0.7887115161014973 L -1.2328942944662011 0.3975429321792641 C -1.2325390350433545 0.3936983763642107 -1.2307409864736667 0.3901310020454365 -1.2278618948374522 0.38755852269219293 L -1.2278618948374522 0.38755852269219254 L -1.1984392388610572 0.3610298984511809 L -1.1984392388610572 0.3610298984511809 L -1.1984392388610572 0.3610298984511809 L -0.866083810983442 0.06190760166821441 C -0.8630450289086908 0.05917218481147028 -0.8590437790670733 0.05775645558518691 -0.8549608614167067 0.05797206017307588 C -0.8508779437663401 0.05818766476096443 -0.8470480506819182 0.0600169292303875 -0.8443142611517273 0.06305717538532443 C -0.8415808195988232 0.06609318212397229 -0.840165443766115 0.07009073312284805 -0.8403795252382396 0.07417034202120544 C -0.8405936067103641 0.07824995091956202 -0.842419607479233 0.08207740750697293 -0.8454557958917964 0.08481064726295388 L -1.1778674966087113 0.38398921688522 C -1.190840394589452 0.3945927070092378 -1.1948670722398356 0.4126994670707781 -1.1876107367845012 0.4278016417681023 C -1.1842161521296672 0.4353877847848809 -1.1794587339362526 0.44228685859113914 -1.1735746828678926 0.4481563316402963 C -1.1673725789720752 0.4544562406606632 -1.1601988829039558 0.45971912249043445 -1.1523276665439561 0.46374390812615096 C -1.1357995297441006 0.4721607170898902 -1.1172696876606063 0.4739453699933761 -1.104375168484067 0.4633419592740144 C -1.103571270779794 0.4626023733860834 -1.1027673730755192 0.4618708264751948 -1.1019634753712477 0.4611473185413487 C -1.0547586021763338 0.41396656227756207 -0.9001449567134933 0.28274634000906906 -0.7619147464637394 0.16544158700154288 L -0.7389152331444867 0.14591491176475016 C -0.7324202739642678 0.14042611322215123 -0.7227068778722107 0.1412355628964893 -0.7172099951291141 0.1477236815993646 C -0.7117166251275531 0.15421717955580996 -0.7125263797142266 0.1639342345958812 -0.719018764963729 0.1694289196147373 L -0.7420182782829807 0.18895559485153002 C -0.8795812534381889 0.30569761946606533 -1.0334553130130977 0.4362988405022682 -1.080210003493618 0.48305353098279 C -1.0815364347056693 0.48437192321779776 -1.0828869828488472 0.4856099256823784 -1.0842696869001964 0.48678361633061706 C -1.0961503628919331 0.5000324115847502 -1.0999970455607238 0.5186426193566628 -1.0943425251347392 0.5355158951636506 C -1.0916064165253436 0.5455004240465019 -1.0870614930705078 0.5548981704468217 -1.0809335114274647 0.563242326984029 L -1.0809335114274647 0.563242326984029 C -1.074955962242925 0.5715591182619879 -1.0674407963579293 0.5786540461127462 -1.058794168651784 0.5841436672951287 C -1.0428494100183288 0.5948709597023795 -1.0221241137747126 0.5953541838691498 -1.005696725284547 0.5853816697597093 C -0.9392545800263784 0.5205071250248722 -0.7780811292966706 0.38651345567663686 -0.6455505537702129 0.27633927530601293 L -0.6255335009338133 0.2596905538505173 C -0.6223998688022998 0.2570839466223015 -0.6183588016049983 0.2558295199337648 -0.6142999550876589 0.2562034404153029 C -0.6102411085703193 0.25657736089684097 -0.6064972396326003 0.25854897338087696 -0.6038925747347819 0.2616842201571139 C -0.6012829743885347 0.2648159782856286 -0.6000258658667272 0.26885692858561216 -0.6003983346051802 0.2729163854435588 C -0.6007708033436315 0.276975842301505 -0.6027422729123418 0.28072055976777466 -0.6058782020643372 0.28332514635614575 L -0.6259032938777784 0.299973867811641 C -0.7580801544143561 0.40985864500872676 -0.9189400850393975 0.5435548722063815 -0.9847632290652767 0.6080515850202098 C -0.9850526322388149 0.608373144101919 -0.9853661523434811 0.6086786252295429 -0.9856957504022323 0.6089841063571667 C -0.9870543375224551 0.6103185765462601 -0.9883807687345049 0.6116208908271824 -0.9896509271072566 0.6129071271540191 C -1.0063237654938795 0.6295638875865571 -1.0055922185829909 0.6500552400684777 -0.9963875898690643 0.668946836118895 C -0.9912896433145502 0.679025819942262 -0.9847224478857612 0.6882914174531766 -0.9769011095174847 0.6964401376050338 C -0.9689622089307438 0.7048583431004556 -0.9600422251529693 0.7122939120286751 -0.9503322903912611 0.7185875193577569 C -0.9325420341956971 0.7300511006206909 -0.9158048839927329 0.7359999436323117 -0.9096952614402577 0.7306459849218528 L -0.9096952614402577 0.7306459849218528 L -0.46763191386049585 0.3441480466614463 C -0.4957111593470038 0.27264563615832055 -0.538852691904532 0.20802518615206825 -0.5941252176278639 0.15467739674132677 C -0.651454458125264 0.099238576507019 -0.7204610089867689 0.057328695002228924 -0.7960884378723874 0.032018685023341334 C -0.7966767801849952 0.031904685419801536 -0.7972568717217337 0.031751605708717066 -0.7978248569136177 0.031560463331905576 C -0.8248422573082879 0.02261691577544834 -0.8525307638187078 0.015845328600714643 -0.8806263204537422 0.011310280161267151 C -0.9087382688221517 0.006795702846952384 -0.9371663645241818 0.004537584606791042 -0.9656385026806213 0.004557539445374056 C -1.107486654616838 0.004367843481128418 -1.2435589506753382 0.06072998839343559 -1.3437276709543302 0.16116485121480995 C -1.4441550622844725 0.2613379188589194 -1.500513431096074 0.3974080832299263 -1.5003269437467261 0.5392540194885204 C -1.5005166288219483 0.6810982286910634 -1.4441576083223329 0.8171670733069798 -1.343727670954364 0.9173351487851551 C -1.2435602718508076 1.017772960240574 -1.1074878122732477 1.0741380660725608 -0.9656385026806213 1.0739504995316675 C -0.8237891930879934 1.0741380660725608 -0.6877167335104343 1.017772960240574 -0.58754933440691 0.9173351487851878 C -0.48711349978188667 0.8171697155864251 -0.4307485574711223 0.6811005439501698 -0.4309339836604309 0.5392540194885204 C -0.4309339836604309 0.5312150424457894 -0.4310652869521292 0.5239987207204315 -0.43132789353552425 0.5176050543124465 C -0.4315931797779349 0.5109970151833221 -0.4320514014693704 0.5037780137989496 -0.43267844167870373 0.49598824504454364 Z M -1.2293491055903558 0.6785373357308733 L -1.157167130723678 0.7699003098215078 L -0.9406774789629392 0.7576730257395146 C -0.9499037540171699 0.7542991452790944 -0.9587151376715047 0.7498840136469717 -0.9669408169615413 0.7445132203205641 C -0.9787671638640566 0.7368538802379089 -0.9896282751952803 0.7277984556563348 -0.9992896605814904 0.7175424523422024 C -1.0092518163129542 0.7071399564661204 -1.0176077028652513 0.6953105788113441 -1.0240818657812705 0.6824442785736403 C -1.0338279255908285 0.6644454185015394 -1.0364424186699814 0.6434376365702542 -1.0314053738671978 0.6235989666208518 C -1.0468506564487299 0.6232426546576518 -1.0619009846436538 0.6186485781280857 -1.0749123176224575 0.6103185765462605 C -1.086939115227952 0.6027540072701244 -1.0974022044069929 0.5929513426036869 -1.105733755604285 0.5814425710087724 L -1.1057337556042866 0.5814425710087721 L -1.1057337556042866 0.5814425710087721 C -1.1141280226717976 0.5700353550252225 -1.1203594447702845 0.5571856013669516 -1.12411889610101 0.5435307552752542 C -1.1279569039000013 0.5299233386758972 -1.128546165169745 0.5156048405326119 -1.1258392371881571 0.5017280746530541 C -1.1399551231992975 0.5014381195040917 -1.1538088235093442 0.4978597745005032 -1.1662994086442184 0.4912774044975048 C -1.177122632444253 0.48571836648968403 -1.1869832829254452 0.4784579095567947 -1.1955050122404614 0.46977314090819994 C -1.1999573685885068 0.4652580983417919 -1.2039932218104314 0.4603505008239309 -1.2075634778045576 0.45511004678225886 L -1.229333027636271 0.6785936085701725 Z M -1.1946689586280168 0.7720225997607886 L -1.233657997285261 0.7226713196954644 L -1.2387064748680965 0.7745146826440348 Z" fill="#404040" transform="matrix(1,0,0,1,0,0)" fill-rule="evenodd"></path></g></g></g><defs><clipPath id="SvgjsClipPath1003"><path d=" M -1.5311403427515087 -0.026320171375754264 h 1.1311403427515085 v 1.1311403427515085 h -1.1311403427515085 Z"></path></clipPath><clipPath id="SvgjsClipPath1000"><path d=" M -1.5311403427515087 -0.026320171375754264 L -0.40000000000000013 -0.026320171375754264 L -0.40000000000000013 1.1048201713757542 L -1.5311403427515087 1.1048201713757542 Z"></path></clipPath></defs></svg>