<?xml version="1.0" standalone="no"?>
<!DOCTYPE svg PUBLIC "-//W3C//DTD SVG 20010904//EN"
 "http://www.w3.org/TR/2001/REC-SVG-20010904/DTD/svg10.dtd">
<svg version="1.0" xmlns="http://www.w3.org/2000/svg"
 width="2000.000000pt" height="2000.000000pt" viewBox="0 0 2000.000000 2000.000000"
 preserveAspectRatio="xMidYMid meet">

<g transform="translate(0.000000,2000.000000) scale(0.100000,-0.100000)"
fill="#000000" stroke="none">
<path d="M1816 13099 c-269 -29 -462 -108 -612 -252 -166 -157 -257 -367 -284
-650 -8 -76 -10 -754 -8 -2122 3 -1865 5 -2017 21 -2104 71 -382 274 -629 603
-735 181 -59 178 -59 854 -63 669 -5 769 0 934 41 190 49 325 125 445 251 117
123 185 261 233 472 22 98 22 101 26 1238 2 809 0 1151 -8 1177 -20 71 9 68
-734 68 -466 0 -672 -3 -689 -11 -14 -6 -30 -22 -36 -36 -7 -16 -11 -158 -11
-448 l0 -424 24 -28 24 -28 227 -3 226 -3 -3 -547 c-3 -532 -4 -548 -24 -592
-26 -56 -63 -93 -122 -122 -46 -23 -51 -23 -417 -23 -368 0 -370 0 -417 23
-61 30 -112 89 -129 150 -12 39 -14 350 -14 1822 l0 1775 23 50 c30 65 63 98
126 127 50 23 56 23 411 23 355 0 361 0 411 -23 63 -29 96 -62 126 -127 22
-48 23 -61 28 -405 3 -195 9 -363 14 -373 22 -45 41 -47 480 -47 l416 0 32 29
33 29 3 424 c4 568 -13 737 -92 920 -55 126 -95 187 -186 279 -126 127 -270
201 -480 247 l-115 25 -630 3 c-346 1 -666 -2 -709 -7z"/>
<path d="M5340 13101 c-14 -4 -35 -22 -47 -40 l-23 -34 2 -2899 3 -2900 33
-29 32 -29 1400 0 c1559 0 1459 -4 1480 67 8 26 10 167 8 451 l-3 414 -28 24
-28 24 -955 0 -954 0 0 750 0 750 720 0 c791 0 763 -2 795 60 23 44 22 827 -1
871 -31 60 -15 59 -799 59 l-715 0 0 740 0 740 955 2 955 3 27 28 28 27 0 435
0 435 -28 27 -27 28 -1403 2 c-771 0 -1413 -2 -1427 -6z"/>
<path d="M9533 13095 c-69 -30 -63 234 -61 -2969 l3 -2896 28 -27 27 -28 433
-3 c475 -2 469 -3 499 58 17 33 18 131 18 1618 0 1529 1 1582 18 1582 16 0
112 -259 587 -1585 312 -872 577 -1599 587 -1616 35 -57 48 -59 483 -59 440 0
444 0 471 65 12 29 14 447 14 2906 0 2569 -2 2874 -15 2904 -29 61 -25 60
-501 60 l-434 0 -27 -28 -28 -27 -3 -1595 -2 -1595 -24 0 c-22 0 -55 88 -586
1578 -309 867 -573 1594 -586 1614 -17 26 -35 40 -61 47 -61 17 -800 14 -840
-4z"/>
<path d="M13953 13103 c-12 -2 -34 -18 -48 -34 l-25 -31 0 -2893 c0 -2223 3
-2900 12 -2920 25 -54 31 -55 487 -55 447 0 456 1 488 49 17 25 18 173 21
2896 2 1942 0 2882 -7 2906 -6 19 -22 46 -37 60 l-26 24 -421 1 c-232 1 -432
0 -444 -3z"/>
<path d="M16194 13100 c-12 -4 -31 -21 -43 -36 l-21 -27 0 -2893 c0 -2222 3
-2899 12 -2919 26 -58 -54 -55 1462 -55 862 0 1404 4 1420 10 14 5 33 21 43
37 17 25 18 59 18 438 0 225 -3 422 -8 437 -16 60 24 58 -1017 58 l-950 0 0
750 0 750 719 0 c486 0 728 3 749 11 17 6 39 23 49 37 17 25 18 58 18 447 0
389 -1 422 -18 447 -10 14 -32 31 -49 37 -21 8 -263 11 -749 11 l-719 0 0 740
0 740 948 0 c924 0 948 1 979 20 18 11 36 32 40 47 5 15 8 213 8 438 0 323 -3
415 -13 433 -31 54 30 52 -1469 51 -763 0 -1398 -4 -1409 -9z"/>
</g>
</svg>
