<?xml version="1.0" encoding="utf-8"?>
<svg version="1.1" id="Layer_1" x="0px" y="0px" width="100%" viewBox="0 0 2000 2000" enable-background="new 0 0 2000 2000" xmlns="http://www.w3.org/2000/svg">
  <path fill="#FCDF31" opacity="1.000000" stroke="none" d=" M2001.000000,1812.625000 C1996.231323,1815.936279 1991.306519,1818.648682 1986.718994,1821.845093 C1956.646484,1842.797852 1926.765747,1864.028198 1896.565674,1884.794800 C1884.172119,1893.317017 1871.575684,1901.735718 1858.299438,1908.737549 C1838.209961,1919.332275 1816.861938,1927.011353 1794.172363,1929.948608 C1780.375610,1931.734497 1766.480957,1933.620850 1752.610474,1933.783813 C1730.505005,1934.043701 1708.564575,1930.960938 1687.653564,1923.690918 C1671.542236,1918.089600 1655.894775,1911.036987 1640.345337,1903.960938 C1612.232666,1891.168091 1584.350098,1877.869263 1556.365234,1864.794800 C1541.422729,1857.813721 1526.453613,1850.889771 1511.521118,1843.887695 C1484.429321,1831.184204 1457.364014,1818.424683 1430.271973,1805.721924 C1415.341553,1798.721558 1400.364990,1791.820312 1385.434692,1784.819702 C1358.346191,1772.118774 1331.276245,1759.378418 1304.199707,1746.651855 C1288.977905,1739.497314 1273.769043,1732.315063 1258.535767,1725.185059 C1231.146851,1712.365479 1203.746338,1699.570557 1176.345459,1686.776367 C1161.401367,1679.798584 1146.432617,1672.873047 1131.499878,1665.871338 C1104.410400,1653.169067 1077.347412,1640.410889 1050.257690,1627.709229 C1035.323364,1620.706909 1020.343079,1613.802979 1005.408997,1606.800293 C978.318848,1594.097412 951.250122,1581.348633 924.167908,1568.628906 C909.529236,1561.753540 894.888123,1554.883179 880.235352,1548.037964 C852.985168,1535.307495 825.711670,1522.626953 798.474670,1509.868530 C777.533569,1500.059204 756.654785,1490.116577 735.709961,1480.315308 C709.638794,1468.115234 683.512756,1456.032593 657.440002,1443.835938 C641.471802,1436.366333 625.583130,1428.726196 609.615967,1421.254150 C582.959106,1408.779785 556.253479,1396.409668 529.595886,1383.936768 C509.233673,1374.409546 488.930481,1364.756104 468.570892,1355.223267 C446.896515,1345.074707 425.170441,1335.036865 403.496826,1324.886719 C383.138031,1315.352539 362.832062,1305.705322 342.477783,1296.161377 C320.954987,1286.069824 299.399231,1276.048462 277.864258,1265.982910 C257.207245,1256.328125 236.550400,1246.672974 215.908325,1236.986328 C194.677414,1227.023438 173.480728,1216.987549 152.239044,1207.047607 C130.710480,1196.973633 109.154457,1186.958252 87.592476,1176.956055 C76.454987,1171.789795 65.215569,1166.836182 54.191101,1161.441406 C52.633957,1160.679565 51.282337,1158.015381 51.117935,1156.120483 C49.583950,1138.439819 48.387157,1120.730225 46.974689,1103.038452 C46.087280,1091.923218 44.975269,1080.825928 44.004929,1069.717163 C42.648552,1054.188965 41.331192,1038.657227 39.995510,1023.127197 C38.997356,1011.521484 38.000427,999.915710 36.996044,988.310486 C35.666370,972.946716 34.329899,957.583435 32.996460,942.219971 C31.663029,926.856506 30.357189,911.490540 28.969357,896.132019 C28.738518,893.577454 28.150763,891.055054 27.484121,887.054749 C685.935974,1195.301270 1343.207153,1502.995239 2000.739258,1810.344482 C2001.000000,1810.750000 2001.000000,1811.500000 2001.000000,1812.625000 z"/>
  <path fill="#FCDF31" opacity="1.000000" stroke="none" d=" M1.000003,579.464661 C6.970000,575.190491 13.069093,571.567017 18.883724,567.533569 C31.950104,558.469727 44.860970,549.182068 57.861790,540.023254 C73.112785,529.279358 88.346489,518.508972 103.733200,507.962341 C105.193367,506.961487 108.059952,506.668365 109.648788,507.401215 C133.006714,518.174988 156.264267,529.166687 179.533646,540.132141 C195.483902,547.648438 211.391312,555.255981 227.360886,562.730896 C254.020844,575.209717 280.729095,587.585449 307.390656,600.060913 C327.753906,609.589355 348.056915,619.246521 368.421722,628.771667 C395.084564,641.242493 421.802826,653.594910 448.457581,666.082947 C469.552582,675.966187 490.562439,686.031128 511.655945,695.917603 C538.161560,708.340698 564.727417,720.635498 591.241821,733.039795 C611.752808,742.635620 632.208069,752.350525 652.718811,761.946899 C674.251526,772.021484 695.836914,781.983643 717.369507,792.058411 C737.732239,801.585876 758.037781,811.235657 778.402161,820.759644 C805.065613,833.229553 831.781189,845.588196 858.437439,858.073364 C874.553955,865.621887 890.572632,873.379211 906.685669,880.935120 C927.476929,890.684998 948.334778,900.292480 969.133972,910.025391 C990.378235,919.966492 1011.570129,930.019409 1032.814453,939.960266 C1053.613770,949.692871 1074.468994,959.305786 1095.265137,969.045227 C1116.359497,978.924377 1137.394287,988.930359 1158.486694,998.813660 C1180.160889,1008.969666 1201.888062,1019.012207 1223.564209,1029.164062 C1243.925781,1038.700317 1264.235474,1048.347534 1284.596313,1057.885376 C1306.125366,1067.970459 1327.701660,1077.955322 1349.232178,1088.037476 C1369.739746,1097.640747 1390.197998,1107.348999 1410.708740,1116.945435 C1432.241333,1127.019897 1453.826538,1136.982666 1475.359375,1147.056885 C1495.722778,1156.583984 1516.030029,1166.231201 1536.394897,1175.755371 C1563.058472,1188.225342 1589.769531,1200.593750 1616.430420,1213.069214 C1632.399902,1220.541626 1648.290283,1228.183228 1664.256226,1235.662964 C1685.345703,1245.542847 1706.484619,1255.316895 1727.583496,1265.176636 C1747.216064,1274.350830 1766.821411,1283.583496 1786.447998,1292.770508 C1787.876221,1293.438965 1789.381104,1293.943726 1790.752319,1294.485718 C1791.842407,1309.710938 1792.864380,1324.811157 1794.022827,1339.900879 C1794.927368,1351.682739 1795.931396,1363.458252 1797.019043,1375.224731 C1798.270508,1388.764282 1799.661011,1402.291138 1800.994629,1415.823120 C1801.461304,1420.559326 1800.494141,1423.832886 1795.834229,1426.989868 C1767.105103,1446.453491 1738.734497,1466.447144 1710.284058,1486.321045 C1701.900757,1492.177368 1693.704224,1498.302856 1685.265259,1504.075562 C1684.020874,1504.926758 1681.597778,1505.181274 1680.239258,1504.565918 C1665.219116,1497.763916 1650.288208,1490.763306 1635.359009,1483.761353 C1608.271729,1471.057495 1581.210205,1458.298340 1554.121460,1445.597290 C1539.190186,1438.596191 1524.215454,1431.687744 1509.277832,1424.700317 C1482.914185,1412.368286 1456.569214,1399.996216 1430.205811,1387.663818 C1415.268311,1380.676147 1400.295044,1373.765381 1385.363892,1366.764404 C1358.277344,1354.064209 1331.213379,1341.315796 1304.133423,1328.601685 C1289.495972,1321.729370 1274.849487,1314.876709 1260.199341,1308.031616 C1232.950073,1295.299561 1205.687012,1282.597534 1178.445435,1269.849121 C1158.234009,1260.390625 1138.058594,1250.854980 1117.847534,1241.395630 C1091.045166,1228.851562 1064.219971,1216.355835 1037.411377,1203.824707 C1022.324280,1196.772705 1007.250977,1189.691406 992.170898,1182.624268 C965.814392,1170.272339 939.459473,1157.917236 913.099854,1145.571899 C898.456177,1138.713623 883.805664,1131.869873 869.156128,1125.023926 C841.908752,1112.290771 814.656921,1099.566895 787.412720,1086.827148 C772.327759,1079.773193 757.254761,1072.693481 742.175598,1065.627197 C715.820984,1053.276978 689.467407,1040.924683 663.110229,1028.579956 C648.466614,1021.721436 633.818726,1014.871826 619.169128,1008.025879 C591.919678,995.292053 564.660156,982.579651 537.419373,969.827271 C522.188171,962.696899 506.999390,955.475769 491.768097,948.345520 C464.967560,935.799438 438.142151,923.306396 411.340729,910.762146 C396.108215,903.632629 380.919342,896.409668 365.681213,889.292114 C339.603973,877.112000 313.493134,865.003784 287.416687,852.821899 C272.180786,845.704346 256.997528,838.474182 241.767181,831.344727 C214.967560,818.799377 188.142929,806.307495 161.342514,793.763916 C146.111053,786.634949 130.923721,779.411682 115.686516,772.295044 C89.611214,760.116455 63.515564,747.981445 37.421211,735.843689 C30.536633,732.641357 23.708685,729.294250 16.693850,726.404175 C12.746446,724.777771 13.411610,721.198608 13.161770,718.575623 C11.821123,704.500366 11.092263,690.368408 9.971505,676.270325 C8.749321,660.896362 7.326888,645.538330 5.997092,630.172913 C4.992577,618.565918 4.022675,606.955872 2.951892,595.355103 C2.855779,594.313843 2.131088,593.330566 1.349157,592.660156 C1.000000,588.643127 1.000000,584.286194 1.000003,579.464661 z"/>
  <path fill="#FCDF31" opacity="1.000000" stroke="none" d=" M1120.886597,563.020874 C1144.102173,573.804260 1166.930786,584.560486 1189.755005,595.326172 C1213.751465,606.644775 1237.739990,617.980225 1261.739136,629.293396 C1277.101318,636.535156 1292.465698,643.772156 1307.847534,650.972107 C1335.091187,663.724426 1362.351562,676.441101 1389.599609,689.184265 C1404.686646,696.240112 1419.766724,703.311096 1434.842773,710.390076 C1462.513306,723.382874 1490.176147,736.392395 1517.847290,749.383728 C1532.488281,756.257507 1547.134888,763.119446 1561.788452,769.966370 C1589.040039,782.700012 1616.306885,795.401001 1643.551270,808.150269 C1659.958130,815.828003 1676.324707,823.592102 1692.727051,831.279358 C1711.614624,840.131470 1730.484253,849.024292 1749.460693,857.682373 C1752.351562,859.001404 1752.879761,860.585876 1753.114990,863.526611 C1754.171997,876.742981 1755.665649,889.924011 1756.949463,903.122864 C1757.378906,907.538757 1757.669800,911.968506 1757.994629,916.394104 C1759.004883,930.165039 1759.917847,943.943726 1761.025146,957.706848 C1762.261841,973.077454 1763.656982,988.435547 1765.007690,1003.796875 C1765.984497,1014.904846 1767.042236,1026.005737 1767.990356,1037.116211 C1769.372192,1053.310181 1770.593994,1069.518433 1772.058838,1085.704712 C1773.433350,1100.892578 1775.034790,1116.060059 1776.617188,1132.054321 C1771.699219,1129.842896 1767.619019,1128.076660 1763.596191,1126.188354 C1739.146240,1114.711060 1714.718506,1103.186157 1690.264526,1091.717041 C1675.335815,1084.715332 1660.359131,1077.815430 1645.429199,1070.815796 C1618.344360,1058.117432 1591.286499,1045.361938 1564.201538,1032.663940 C1549.270386,1025.663818 1534.292603,1018.763611 1519.361694,1011.763123 C1492.276489,999.063782 1465.218750,986.305603 1438.133301,973.606689 C1423.202026,966.606201 1408.227905,959.697266 1393.290405,952.710205 C1366.927856,940.379211 1340.583984,928.008545 1314.221680,915.677063 C1299.285645,908.690369 1284.313843,901.779724 1269.383911,894.779968 C1242.299194,882.081665 1215.236206,869.337280 1188.159424,856.622009 C1173.522827,849.748718 1158.883545,842.880981 1144.233032,836.037048 C1116.984497,823.308167 1089.717651,810.618652 1062.476318,797.874329 C1042.267212,788.419922 1022.094971,778.886169 1001.890259,769.422119 C980.072449,759.202515 958.232666,749.029724 936.408630,738.823303 C921.325378,731.769409 906.252930,724.692078 891.174988,717.626770 C864.822388,705.278198 838.466064,692.937683 812.117493,680.580444 C796.305115,673.164612 780.520142,665.690247 764.695496,658.300720 C738.619324,646.124146 712.512878,634.012268 686.434875,621.839600 C671.636780,614.932190 656.877136,607.942627 642.087463,601.017334 C614.850952,588.263916 587.599243,575.543152 560.365356,562.784180 C545.138184,555.650269 529.946350,548.440857 514.716858,541.311829 C487.920013,528.767944 461.103729,516.265564 434.301056,503.734070 C419.215698,496.680939 404.141968,489.602905 389.061737,482.538788 C362.118835,469.917725 335.180023,457.287933 308.229553,444.683075 C293.291992,437.696716 278.335022,430.751892 263.385376,423.791473 C255.946289,420.327911 248.503967,416.871307 240.174194,412.998199 C245.772293,408.930115 250.879684,405.070099 256.135376,401.423859 C286.374207,380.444946 316.665405,359.541595 346.903625,338.561768 C364.625671,326.265961 382.282806,313.876556 399.968048,301.527618 C420.840515,286.953186 441.689148,272.344208 462.640747,257.884399 C463.873718,257.033447 466.248383,256.680969 467.558472,257.274200 C482.580688,264.076874 497.511932,271.081299 512.443054,278.083923 C539.533997,290.789398 566.610657,303.525177 593.688782,316.257935 C609.058105,323.484955 624.403625,330.762909 639.786316,337.961456 C667.031006,350.710999 694.304871,363.398193 721.549377,376.148041 C742.348572,385.881622 763.115845,395.683258 783.907104,405.433746 C810.849854,418.069031 837.798584,430.691620 864.752197,443.303741 C879.546082,450.226074 894.365723,457.093506 909.155457,464.024780 C936.981750,477.065735 964.793640,490.137665 992.614014,503.191376 C1007.692932,510.266571 1022.771057,517.343262 1037.859863,524.397156 C1065.401855,537.272705 1092.951294,550.131897 1120.886597,563.020874 z"/>
  <path fill="#FCDF31" opacity="1.000000" stroke="none" d=" M1329.300537,250.715790 C1347.322266,259.283783 1365.015991,267.658875 1382.748291,275.951416 C1404.280762,286.021149 1425.862061,295.986176 1447.391724,306.061584 C1467.751343,315.589508 1488.052124,325.243317 1508.413940,334.766754 C1535.073608,347.235901 1561.665161,359.857941 1588.481201,371.982849 C1607.928223,380.775909 1626.512451,391.074036 1642.896118,404.648224 C1663.857910,422.015686 1682.032471,442.068176 1695.983521,465.688721 C1704.556396,480.203430 1711.804810,495.350342 1716.894409,511.389832 C1722.098511,527.790222 1726.083008,544.481995 1727.098999,561.822693 C1727.971436,576.712036 1729.691040,591.551147 1730.994995,606.416016 C1732.357056,621.943237 1733.653809,637.476196 1735.010254,653.003967 C1735.980469,664.111694 1736.970215,675.217896 1738.020996,686.318176 C1738.310547,689.377991 1738.849487,692.414124 1739.401733,696.379517 C1737.446533,695.757141 1736.274414,695.524170 1735.225830,695.029480 C1716.934082,686.401001 1698.681030,677.690430 1680.371582,669.099854 C1658.856689,659.005310 1637.280029,649.042480 1615.759277,638.960388 C1594.673828,629.082275 1573.642090,619.089783 1552.555664,609.214050 C1530.886963,599.065613 1509.164429,589.032043 1487.495117,578.884705 C1467.140869,569.353149 1446.842041,559.703369 1426.488403,550.170410 C1404.820557,540.021851 1383.101440,529.982666 1361.434082,519.832825 C1345.472412,512.355713 1329.581665,504.727051 1313.617310,497.255676 C1286.965942,484.782623 1260.262451,472.420715 1233.615845,459.937195 C1212.530151,450.058868 1191.520630,440.017181 1170.434204,430.140167 C1143.788818,417.659271 1117.086304,405.299896 1090.434082,392.833344 C1075.054321,385.639374 1059.744751,378.294830 1044.368042,371.094177 C1022.844543,361.015228 1001.271729,351.041687 979.750000,340.959076 C958.665588,331.081299 937.639648,321.078735 916.550171,311.211823 C889.898193,298.742432 863.186768,286.399841 836.540833,273.917603 C815.453735,264.039429 794.450806,253.981949 773.367004,244.096771 C746.871704,231.674423 720.319031,219.374603 693.815857,206.969009 C672.580933,197.029358 651.386658,187.002838 630.166870,177.030914 C620.954224,172.701584 611.719971,168.418152 602.504028,164.095825 C601.641296,163.691208 600.839722,163.156204 599.583618,162.438156 C600.581909,161.257156 601.225464,160.073914 602.214050,159.387634 C632.443542,138.401749 662.602600,117.311684 693.011292,96.588051 C707.052795,87.018768 721.137024,77.343727 736.030823,69.240181 C751.608582,60.764473 768.518311,55.188831 785.852417,50.891388 C808.290344,45.328606 831.068420,43.841324 853.910034,45.197350 C877.455994,46.595192 900.547668,51.342899 922.325439,60.826347 C939.660889,68.375313 956.758972,76.474205 973.902893,84.456818 C1000.879150,97.017586 1027.801636,109.693977 1054.754272,122.305290 C1069.547852,129.227264 1084.362915,136.103348 1099.157471,143.022980 C1125.671143,155.423782 1152.177002,167.840851 1178.685181,180.253082 C1194.356079,187.590836 1210.025757,194.931122 1225.694946,202.272430 C1252.054565,214.622452 1278.407959,226.985840 1304.775879,239.318130 C1312.827148,243.083725 1320.917236,246.765900 1329.300537,250.715790 z"/>
  <path fill="#FCDF31" opacity="1.000000" stroke="none" d=" M382.008728,1471.000366 C402.142853,1480.352173 421.889038,1489.664307 441.648712,1498.947754 C465.953766,1510.366333 490.276428,1521.747559 514.579712,1533.170044 C535.511169,1543.007690 556.407104,1552.921265 577.353271,1562.727539 C604.009460,1575.206909 630.718445,1587.573486 657.370789,1600.061157 C678.461914,1609.943115 699.478638,1619.984009 720.570679,1629.864014 C747.221924,1642.348389 773.925598,1654.720947 800.587891,1667.181763 C815.825195,1674.303345 831.012329,1681.532227 846.245056,1688.663696 C873.047241,1701.211670 899.875244,1713.704346 926.676331,1726.254395 C942.057251,1733.456909 957.390808,1740.760620 972.773682,1747.958862 C1000.018066,1760.707275 1027.296387,1773.383179 1054.536499,1786.140625 C1074.895386,1795.675659 1095.202393,1805.321899 1115.558838,1814.861938 C1137.084106,1824.950195 1158.636719,1834.980103 1180.187988,1845.012329 C1183.401978,1846.508545 1186.674683,1847.878418 1190.963135,1849.765503 C1185.740112,1853.465942 1181.130371,1856.801636 1176.450562,1860.036133 C1145.242920,1881.604004 1114.236450,1903.472900 1082.718018,1924.576904 C1065.031982,1936.418945 1045.419312,1944.701050 1024.749268,1949.829712 C1012.026733,1952.986206 999.009216,1955.279419 985.988892,1956.808960 C975.177368,1958.079102 964.148254,1958.252197 953.250854,1957.879272 C930.206787,1957.090576 907.742798,1952.633911 886.160217,1944.492310 C875.302795,1940.396606 864.735168,1935.485596 854.200256,1930.590820 C826.483887,1917.713013 798.864868,1904.625977 771.191711,1891.654907 C756.261475,1884.656738 741.285034,1877.757202 726.355469,1870.757568 C699.270752,1858.059082 672.208801,1845.312134 645.130737,1832.599365 C630.493835,1825.727661 615.847961,1818.875366 601.198242,1812.031006 C573.952942,1799.302246 546.688782,1786.614136 519.457703,1773.855103 C498.519104,1764.044434 477.634857,1754.117432 456.698029,1744.302856 C429.908997,1731.744873 403.088715,1719.253662 376.287231,1706.722290 C361.202271,1699.669189 346.133911,1692.580688 331.047577,1685.530640 C304.828156,1673.277832 278.574280,1661.098511 252.385025,1648.781860 C232.034119,1639.211182 211.459747,1630.050903 191.550903,1619.626831 C177.014038,1612.015381 163.914841,1602.014404 151.452988,1591.150146 C134.488052,1576.360352 120.706589,1559.098755 108.627861,1540.257690 C95.676804,1520.056030 86.311249,1498.308716 81.167427,1474.954956 C78.236160,1461.646729 76.621727,1448.007690 75.096825,1434.440918 C73.337898,1418.792236 72.330818,1403.059082 70.997322,1387.362549 C69.663742,1371.664917 68.368362,1355.963745 66.976479,1340.271362 C66.475342,1334.621338 65.742226,1328.991821 65.025223,1322.546143 C76.617661,1327.964722 87.682396,1333.118530 98.731773,1338.304932 C126.403717,1351.293579 154.061157,1364.313110 181.739426,1377.288330 C196.673416,1384.289185 211.652603,1391.193726 226.585892,1398.196167 C253.675415,1410.898926 280.737701,1423.659424 307.827484,1436.361450 C322.761139,1443.363647 337.736938,1450.275757 352.675720,1457.267212 C362.342865,1461.791382 371.977600,1466.385132 382.008728,1471.000366 z"/>
</svg>